<svg width="13" height="16" viewBox="0 0 13 16" fill="none" xmlns="http://www.w3.org/2000/svg">
<path d="M9.34639 3.91255C9.34639 6.07337 7.90415 7.82505 6.12522 7.82505C4.3462 7.82505 2.90396 6.07337 2.90396 3.91255C2.90396 1.75168 3.37756 0 6.12522 0C8.87288 0 9.34639 1.75168 9.34639 3.91255Z" fill="#58595B"/>
<path d="M7.88902 8.12526C11.651 8.80421 12.1426 9.8768 12.2022 13.641C12.206 13.8818 12.2081 13.9234 12.2091 13.9019C12.2089 13.9658 12.2088 14.0596 12.2088 14.1945C12.2088 14.1945 11.3131 16 6.12518 16C0.937152 16 0.0415185 14.1945 0.0415185 14.1945C0.0415185 13.9845 0.0412442 13.8641 0.0410156 13.799C0.0420213 13.8337 0.0446271 13.818 0.0502499 13.5187C0.118821 9.85349 0.64033 8.7968 4.36124 8.12526C4.36124 8.12526 4.89089 8.80005 6.12518 8.80005C7.35946 8.80005 7.88902 8.12526 7.88902 8.12526Z" fill="#58595B"/>
</svg>
