<svg width="16"  height="16" viewBox="0 0 16 16" fill="none" xmlns="http://www.w3.org/2000/svg">
<path fill-rule="evenodd" clip-rule="evenodd" d="M1.05096 5.46124C0.481863 5.61373 0.144135 6.19869 0.296625 6.76779L1.40105 10.8896C1.55354 11.4587 2.1385 11.7964 2.7076 11.6439L4.55698 11.1484C4.69653 11.111 4.84222 11.1023 4.98521 11.1229L11.2086 12.0196C11.9666 12.1288 12.5894 11.4273 12.3912 10.6876L9.91535 1.44766C9.71713 0.707893 8.82708 0.411805 8.22521 0.885408L3.28393 4.77362C3.17039 4.86296 3.03989 4.92831 2.90034 4.9657L1.05096 5.46124ZM8.57905 2.64318L4.27346 6.03116C3.98962 6.25451 3.66337 6.41788 3.3145 6.51136L1.98034 6.86885L2.80866 9.96018L4.14282 9.60269C4.49169 9.50921 4.85591 9.48757 5.21341 9.53907L10.6361 10.3204L8.57905 2.64318Z" fill="#969693"/>
<path d="M4.47003 13.7057C3.99943 13.175 4.25185 12.3345 4.93699 12.1509C5.28609 12.0574 5.65807 12.1691 5.89786 12.4395L7.6476 14.4127C8.1182 14.9434 7.86578 15.7839 7.18064 15.9675C6.83154 16.061 6.45956 15.9493 6.21977 15.6789L4.47003 13.7057Z" fill="#969693"/>
<path d="M12.8695 0.107326C13.2522 0.328266 13.3833 0.817595 13.1623 1.20027L12.4538 2.42757C12.2328 2.81025 11.7435 2.94136 11.3608 2.72042C10.9781 2.49948 10.847 2.01015 11.068 1.62747L11.7765 0.400181C11.9975 0.0175016 12.4868 -0.113614 12.8695 0.107326Z" fill="#969693"/>
<path d="M15.2805 4.98343C15.3948 5.41025 15.1415 5.84897 14.7147 5.96334L13.169 6.3775C12.7422 6.49187 12.3035 6.23857 12.1891 5.81175C12.0748 5.38492 12.3281 4.9462 12.7549 4.83184L14.3006 4.41768C14.7274 4.30331 15.1661 4.55661 15.2805 4.98343Z" fill="#969693"/>
<path d="M14.5376 10.7046C14.9203 10.9255 15.4096 10.7944 15.6305 10.4117C15.8515 10.0291 15.7204 9.53974 15.3377 9.3188L14.1104 8.61022C13.7277 8.38928 13.2384 8.5204 13.0174 8.90308C12.7965 9.28576 12.9276 9.77508 13.3103 9.99602L14.5376 10.7046Z" fill="#969693"/>
</svg>
