<svg width="16" height="16" viewBox="0 0 16 16" fill="none" xmlns="http://www.w3.org/2000/svg">
<path fill-rule="evenodd" clip-rule="evenodd" d="M3 4.5C3.27614 4.5 3.5 4.27614 3.5 4V3C3.5 2.72386 3.72386 2.5 4 2.5H8C8.27614 2.5 8.5 2.72386 8.5 3V4C8.5 4.27614 8.72386 4.5 9 4.5H13.79C14.0858 4.5 14.317 4.75541 14.2875 5.04975L13.6875 13.0498C13.662 13.3054 13.4469 13.5 13.19 13.5H2C1.72386 13.5 1.5 13.2761 1.5 13V5C1.5 4.72386 1.72386 4.5 2 4.5H3ZM10 2V3H14.895C15.4866 3 15.9489 3.51082 15.89 4.0995L15.09 14.0995C15.0389 14.6107 14.6088 15 14.095 15H1C0.447715 15 0 14.5523 0 14V4C0 3.44772 0.447715 3 1 3H2V2C2 1.44772 2.44772 1 3 1H9C9.55229 1 10 1.44772 10 2ZM8.92951 12.7493C8.95295 12.7498 8.97645 12.75 9 12.75C9.02355 12.75 9.04706 12.7498 9.0705 12.7493C9.56183 12.7396 10.0283 12.6286 10.45 12.4365C11.6594 11.8852 12.5 10.6658 12.5 9.25C12.5 7.317 10.933 5.75 9 5.75C7.067 5.75 5.5 7.317 5.5 9.25C5.5 10.6658 6.34062 11.8852 7.54999 12.4365C7.97167 12.6286 8.43818 12.7396 8.92951 12.7493ZM6.55001 9.75H7.42749C7.4999 10.4051 7.71293 11.0178 8.03573 11.5573C7.2824 11.2421 6.71619 10.5687 6.55001 9.75ZM9.56453 9.75H8.43547C8.51204 10.2854 8.70978 10.7816 9 11.2102C9.29022 10.7817 9.48795 10.2854 9.56453 9.75ZM8.43547 8.75H9.56453C9.48795 8.21464 9.29022 7.71836 9 7.28983C8.70978 7.71836 8.51205 8.21464 8.43547 8.75ZM9.96427 11.5573C10.2871 11.0178 10.5001 10.4051 10.5725 9.75H11.45C11.2838 10.5687 10.7176 11.2421 9.96427 11.5573ZM10.5725 8.75H11.45C11.2838 7.93134 10.7176 7.25794 9.96426 6.94274C10.2871 7.48221 10.5001 8.09491 10.5725 8.75ZM6.55001 8.75H7.42749C7.49991 8.09491 7.71294 7.48221 8.03574 6.94274C7.28241 7.25794 6.71619 7.93134 6.55001 8.75Z" fill="#58595B"/>
</svg>
