<svg width="16" height="16" viewBox="0 0 16 16" fill="none" xmlns="http://www.w3.org/2000/svg">
<g clip-path="url(#clip0)">
<path fill-rule="evenodd" clip-rule="evenodd" d="M3.5 4C3.5 4.27614 3.27614 4.5 3 4.5H2C1.72386 4.5 1.5 4.72386 1.5 5V13C1.5 13.2761 1.72386 13.5 2 13.5H13.19C13.4469 13.5 13.662 13.3054 13.6875 13.0498L14.2875 5.04975C14.317 4.75541 14.0858 4.5 13.79 4.5H9C8.72386 4.5 8.5 4.27614 8.5 4V3C8.5 2.72386 8.27614 2.5 8 2.5H4C3.72386 2.5 3.5 2.72386 3.5 3V4ZM10 3V2C10 1.44772 9.55229 1 9 1H3C2.44772 1 2 1.44772 2 2V3H1C0.447715 3 0 3.44772 0 4V14C0 14.5523 0.447715 15 1 15H14.095C14.6088 15 15.0389 14.6107 15.09 14.0995L15.89 4.0995C15.9489 3.51082 15.4866 3 14.895 3H10Z" fill="#002F5F"/>
</g>
<defs>
<clipPath id="clip0">
<rect width="16" height="16" fill="white"/>
</clipPath>
</defs>
</svg>
