<svg width="16" height="16" viewBox="0 0 16 16" fill="none" xmlns="http://www.w3.org/2000/svg">
<path fill-rule="evenodd" clip-rule="evenodd" d="M3 4.5C3.27614 4.5 3.5 4.27614 3.5 4V3C3.5 2.72386 3.72386 2.5 4 2.5H8C8.27614 2.5 8.5 2.72386 8.5 3V4C8.5 4.27614 8.72386 4.5 9 4.5H13.79C14.0858 4.5 14.317 4.75541 14.2875 5.04975L13.6875 13.0498C13.662 13.3054 13.4469 13.5 13.19 13.5H2C1.72386 13.5 1.5 13.2761 1.5 13V5C1.5 4.72386 1.72386 4.5 2 4.5H3ZM10 2V3H14.895C15.4866 3 15.9489 3.51082 15.89 4.0995L15.09 14.0995C15.0389 14.6107 14.6088 15 14.095 15H1C0.447715 15 0 14.5523 0 14V4C0 3.44772 0.447715 3 1 3H2V2C2 1.44772 2.44772 1 3 1H9C9.55229 1 10 1.44772 10 2ZM9 7.18182C8.33726 7.18182 7.8 7.71094 7.8 8.36364V8.95455H10.2V8.36364C10.2 7.71094 9.66274 7.18182 9 7.18182ZM6.6 8.36364V8.95455H6.5C6.22386 8.95455 6 9.1784 6 9.45455V12C6 12.2761 6.22386 12.5 6.5 12.5H11.5C11.7761 12.5 12 12.2761 12 12V9.45455C12 9.1784 11.7761 8.95455 11.5 8.95455H11.4V8.36364C11.4 7.05824 10.3255 6 9 6C7.67452 6 6.6 7.05824 6.6 8.36364Z" fill="#58595B"/>
</svg>
