<svg width="16" height="16" viewBox="0 0 16 16" fill="none" xmlns="http://www.w3.org/2000/svg">
<path fill-rule="evenodd" clip-rule="evenodd" d="M14.9999 2C14.9999 1.44772 14.5522 1 13.9999 1H5.99992C5.44764 1 4.99992 1.44772 4.99992 2V5.25C4.99992 5.66421 5.33571 6 5.74992 6C6.16414 6 6.49992 5.66421 6.49992 5.25V2.5H13.4999V13.5H6.49992V10.75C6.49992 10.3358 6.16414 10 5.74992 10C5.33571 10 4.99992 10.3358 4.99992 10.75V14C4.99992 14.5523 5.44764 15 5.99992 15H13.9999C14.5522 15 14.9999 14.5523 14.9999 14V2ZM3.99992 5.48284C3.99992 5.4298 3.97885 5.37893 3.94135 5.34142C3.86324 5.26332 3.73661 5.26332 3.6585 5.34142L1.35348 7.64645C1.15822 7.84171 1.15822 8.15829 1.35348 8.35355L3.6585 10.6586C3.69601 10.6961 3.74688 10.7172 3.79992 10.7172C3.91038 10.7172 3.99992 10.6276 3.99992 10.5172V9H8.99992C9.55221 9 9.99992 8.55228 9.99992 8C9.99992 7.44772 9.55221 7 8.99992 7H3.99992V5.48284Z" fill="#58595B"/>
</svg>
