<svg width="16" height="16" viewBox="0 0 16 16" fill="none" xmlns="http://www.w3.org/2000/svg">
<path fill-rule="evenodd" clip-rule="evenodd" d="M8 0C12.4183 0 16 3.58172 16 8C16 12.4183 12.4183 16 8 16C3.58172 16 0 12.4183 0 8C0 3.58172 3.58172 0 8 0ZM8 1.5C4.41015 1.5 1.5 4.41015 1.5 8C1.5 11.5899 4.41015 14.5 8 14.5C11.5899 14.5 14.5 11.5899 14.5 8C14.5 4.41015 11.5899 1.5 8 1.5ZM8.14587 4C6.67534 4 6 4.87141 6 5.45963C6 5.88447 6.35944 6.08053 6.65356 6.08053C6.90128 6.08053 7.00217 5.93176 7.11897 5.75952C7.27949 5.52281 7.47006 5.24178 8.11319 5.24178C8.65784 5.24178 9.09356 5.48144 9.09356 5.9825C9.09356 6.46384 8.68515 6.77739 8.33976 7.04256C8.26304 7.10146 8.18943 7.15797 8.12409 7.21341C7.80822 7.48572 7.39428 7.93234 7.39428 8.86913C7.39428 9.43553 7.54675 9.59894 7.99337 9.59894C8.52712 9.59894 8.63603 9.35931 8.63603 9.15234C8.63603 8.58591 8.64697 8.25912 9.24606 7.79075C9.54016 7.562 10.4661 6.82128 10.4661 5.79734C10.4661 4.77341 9.54016 4 8.14587 4ZM8.00425 10.3506C7.54678 10.3506 7.17641 10.7318 7.17641 11.1893C7.17641 11.6359 7.53587 12.0281 8.00425 12.0281C8.47262 12.0281 8.843 11.6359 8.843 11.1893C8.843 10.7318 8.46178 10.3506 8.00425 10.3506Z" fill="#969693"/>
</svg>
