<svg width="16" height="16" viewBox="0 0 16 16" fill="none" xmlns="http://www.w3.org/2000/svg">
<path fill-rule="evenodd" clip-rule="evenodd" d="M6.79712 0C10.5511 0 13.5942 3.04317 13.5942 6.79712C13.5942 8.402 13.038 9.87698 12.1079 11.0398L15.7788 14.7107C16.0737 15.0057 16.0737 15.4839 15.7788 15.7788C15.5107 16.0469 15.0911 16.0713 14.7954 15.8519L14.7107 15.7788L11.0398 12.1079C9.87698 13.038 8.402 13.5942 6.79712 13.5942C3.04317 13.5942 0 10.5511 0 6.79712C0 3.04317 3.04317 0 6.79712 0ZM6.79712 1.51047C3.87738 1.51047 1.51047 3.87738 1.51047 6.79712C1.51047 9.71685 3.87738 12.0838 6.79712 12.0838C9.71685 12.0838 12.0838 9.71685 12.0838 6.79712C12.0838 3.87738 9.71685 1.51047 6.79712 1.51047Z" fill="#58595B"/>
</svg>
